#N canvas 182 119 1467 851 12;
#X obj 574 67 bng 19 250 50 0 \$0-browse-vschaos2 empty IRCAM\ vschaos2\ models 24 9 0 12 #fcfcfc #000000 #000000;
#X obj 768 92 bng 19 250 50 0 \$0-browse-rave-iil empty iiL\ RAVE\ models 24 9 0 12 #fcfcfc #000000 #000000;
#X obj 574 92 bng 19 250 50 0 \$0-browse-rave-ircam empty IRCAM\ RAVE\ models 24 9 0 12 #fcfcfc #000000 #000000;
#N canvas 38 607 670 504 guts 0;
#X obj 57 272 pdcontrol;
#X msg 60 162 browse https://acids-ircam.github.io/rave_models_download;
#X msg 60 222 browse https://www.dropbox.com/sh/avdeiza7c6bn2of/AAAGZsnRo9ZVMa0iFhouCBL-a?dl=0, f 80;
#X obj 60 198 r \$0-browse-vschaos2;
#X obj 60 138 r \$0-browse-rave-ircam;
#X obj 61 73 r \$0-browse-rave-iil;
#X msg 61 98 browse https://huggingface.co/Intelligent-Instruments-Lab/rave-models, f 69;
#X obj 84 335 loadbang;
#X msg 84 359 0;
#X obj 84 383 s \$0-enable;
#X connect 1 0 0 0;
#X connect 2 0 0 0;
#X connect 3 0 2 0;
#X connect 4 0 1 0;
#X connect 5 0 6 0;
#X connect 6 0 0 0;
#X connect 7 0 8 0;
#X connect 8 0 9 0;
#X restore 901 800 pd guts;
#X msg 24 659 gpu \$1;
#X obj 24 635 tgl 19 0 empty empty empty 0 -10 0 12 #fcfcfc #000000 #000000 0 1;
#X obj 419 549 vsl 19 162 -10 10 0 0 empty empty empty 0 -9 0 12 #fcfcfc #000000 #000000 0 1;
#X obj 512 139 tgl 19 0 \$0-enable empty empty 0 -10 0 12 #dfdfdf #000000 #000000 0 1;
#X text 394 540 10;
#X text 401 621 0;
#X text 387 703 -10;
#X obj 450 549 vsl 19 162 -10 10 0 0 empty empty empty 0 -9 0 12 #fcfcfc #000000 #000000 0 1;
#X obj 482 549 vsl 19 162 -10 10 0 0 empty empty empty 0 -9 0 12 #fcfcfc #000000 #000000 0 1;
#X obj 514 549 vsl 19 162 -10 10 0 0 empty empty empty 0 -9 0 12 #fcfcfc #000000 #000000 0 1;
#X obj 425 163 noise~;
#X obj 512 187 f;
#X obj 512 235 mtof;
#X obj 419 800 dac~;
#X obj 512 259 lop~ 12;
#X obj 590 265 +~ 3;
#X obj 425 284 bob~;
#X obj 590 241 *~ 3;
#X obj 443 211 line~;
#X obj 425 260 *~;
#X obj 443 235 pow~ 2;
#X obj 542 187 + 4;
#X obj 512 211 + 50;
#X obj 572 187 mod 41;
#X obj 590 217 osc~ 7;
#X obj 697 378 dac~;
#X text 21 297 optional leading flags:;
#X obj 24 800 s \$0-nn;
#X msg 24 752 bufsize 0;
#X msg 24 728 bufsize 4096;
#X text 120 727 <-- default;
#X obj 512 163 metro 150;
#X text 29 238 3rd :;
#X text 29 203 2nd :;
#X text 72 203 <method> - optional \, defaults to "forward", f 21;
#X text 29 183 1st :;
#X text 73 183 <model_path>;
#X obj 267 635 tgl 19 0 empty \$0-enable empty 0 -10 0 12 #fcfcfc #000000 #000000 0 1;
#X msg 267 659 enable \$1;
#X obj 697 252 tgl 19 0 empty empty empty 0 -10 0 12 #dfdfdf #000000 #000000 0 1;
#X text 29 326 -m :;
#X text 69 326 activate multichannel mode (in- and output signal for all methods combined in 1 inlet and 1 outlet), f 33;
#X text 29 374 -g :;
#X text 68 374 activate GPU mode (if available);
#X text 29 395 -d :;
#X text 68 395 initialize in disabled state;
#X obj 457 318 r \$0-nn;
#X obj 614 737 r \$0-nn;
#X obj 419 732 snake~ in 4;
#X obj 24 683 s \$0-nn;
#X obj 267 683 s \$0-nn;
#X obj 24 497 s \$0-nn;
#X obj 605 800 print;
#X text 419 110 timbre transfer;
#X text 695 223 decoder-only;
#X obj 267 800 s \$0-nn;
#X obj 267 775 bng 19 250 50 0 empty empty empty 0 -10 0 12 #fcfcfc #000000 #000000;
#X text 264 725 bang to output state on info outlet, f 14;
#X text 22 151 CREATION ARGS:;
#X text 22 442 MESSAGES:;
#X text 72 238 <buffer size> - optional \, defaults to 4096 0 sets no-thread-mode \, resulting in lower latency, f 34;
#X text 650 800 <-- check info log on bang;
#X msg 24 542 reload;
#X msg 24 566 method forward;
#X obj 893 574 dac~;
#X obj 893 431 tgl 19 0 empty empty empty 0 -10 0 12 #dfdfdf #000000 #000000 0 1;
#N canvas 237 262 668 332 snapshotall 0;
#X obj 49 158 snapshot~;
#X obj 139 158 snapshot~;
#X obj 230 158 snapshot~;
#X obj 323 158 snapshot~;
#X obj 49 182 outlet;
#X obj 139 182 outlet;
#X obj 230 182 outlet;
#X obj 323 182 outlet;
#X obj 49 44 inlet~;
#X obj 404 110 route enable;
#X obj 404 139 metro 25;
#X obj 404 86 r \$0-nn;
#X obj 49 101 snake~ out 4;
#X connect 0 0 4 0;
#X connect 1 0 5 0;
#X connect 2 0 6 0;
#X connect 3 0 7 0;
#X connect 8 0 12 0;
#X connect 9 0 10 0;
#X connect 10 0 2 0;
#X connect 10 0 3 0;
#X connect 10 0 1 0;
#X connect 10 0 0 0;
#X connect 11 0 9 0;
#X connect 12 0 0 0;
#X connect 12 1 1 0;
#X connect 12 2 2 0;
#X connect 12 3 3 0;
#X restore 380 397 pd snapshotall;
#X msg 24 590 set <attribute> <value>;
#X text 891 403 prior;
#X msg 697 276 enable \$1;
#X obj 893 512 nn~ -m -g;
#X obj 893 550 nn~ -m -g;
#X msg 893 479 enable \$1;
#X obj 967 455 sel 1;
#X obj 893 455 t f f;
#X text 73 542 reload model;
#X msg 24 776 bufsize 16384;
#X text 97 752 <-- no-thread-mode;
#X text 197 584 see info log for attributes, f 14;
#X text 133 565 switch method (multichannel only);
#X text 80 651 activate if available (check Pd's CPU meter), f 22;
#X text 755 42 EXAMPLES (these require the percussion.ts and vintage.ts models from the IRCAM RAVE collection above):, f 38;
#X msg 443 187 1 \, 0 200;
#X obj 770 314 osc~ 5.1;
#X obj 835 314 osc~ 7.1;
#X obj 900 314 osc~ 9.1;
#X obj 706 309 osc~ 4.1;
#X text 97 494 dynamically load another model (multichannel only), f 30;
#X msg 1062 233 print_available_models;
#X obj 1062 276 nn~;
#X obj 1060 392 nn~;
#X text 1055 151 DIRECT DOWNLOAD you can directly download nn~ compatible models within nn~., f 37;
#X msg 1081 357 remove nasa;
#X msg 1060 325 download ircam/rave/nasa;
#X obj 797 129 vsl 19 162 -10 10 0 0 empty empty empty 0 -9 0 12 #fcfcfc #000000 #000000 0 1;
#X obj 828 129 vsl 19 162 -10 10 0 0 empty empty empty 0 -9 0 12 #fcfcfc #000000 #000000 0 1;
#X obj 860 129 vsl 19 162 -10 10 0 0 empty empty empty 0 -9 0 12 #fcfcfc #000000 #000000 0 1;
#X obj 892 129 vsl 19 162 -10 10 0 0 empty empty empty 0 -9 0 12 #fcfcfc #000000 #000000 0 1;
#X obj 925 130 vsl 19 162 -10 10 0 0 empty empty empty 0 -9 0 12 #fcfcfc #000000 #000000 0 1;
#X obj 956 130 vsl 19 162 -10 10 0 0 empty empty empty 0 -9 0 12 #fcfcfc #000000 #000000 0 1;
#X obj 988 130 vsl 19 162 -10 10 0 0 empty empty empty 0 -9 0 12 #fcfcfc #000000 #000000 0 1;
#X obj 1020 130 vsl 19 162 -10 10 0 0 empty empty empty 0 -9 0 12 #fcfcfc #000000 #000000 0 1;
#X msg 132 446 load nasa;
#X text 25 58 Atau's model of Nicholas Isherwood (isherwood_V2-mono_streaming.ts) is found at https://github.com/ataut/eklekto-touch/tree/main/max/models;
#X text 28 19 ADAPTED FROM NN~ HELP FILE, f 37;
#X obj 697 338 nn~ -d -g isherwood_pi_streaming decode;
#X msg 966 479 load isherwood_pi_streaming \, method prior \, bufsize 8192, f 63;
#X msg 967 517 load isherwood_pi_streaming \, method decode \, bufsize 8192, f 63;
#X msg 22 472 load isherwood_pi_streaming;
#X obj 413 495 +;
#X obj 596 552 vsl 19 162 -10 10 0 0 empty empty empty 0 -9 0 12 #fcfcfc #000000 #000000 0 1;
#X obj 447 493 +;
#X obj 625 552 vsl 19 162 -10 10 0 0 empty empty empty 0 -9 0 12 #fcfcfc #000000 #000000 0 1;
#X obj 480 499 +;
#X obj 654 553 vsl 19 162 -10 10 0 0 empty empty empty 0 -9 0 12 #fcfcfc #000000 #000000 0 1;
#X obj 514 499 +;
#X obj 681 551 vsl 19 162 -10 10 0 0 empty empty empty 0 -9 0 12 #fcfcfc #000000 #000000 0 1;
#X text 709 626 bias;
#X obj 378 352 nn~ -m -g isherwood_pi_streaming encode 8192;
#X obj 420 756 nn~ -m -g isherwood_pi_streaming decode 8192;
#X connect 4 0 53 0;
#X connect 5 0 4 0;
#X connect 6 0 52 0;
#X connect 7 0 35 0;
#X connect 11 0 52 1;
#X connect 12 0 52 2;
#X connect 13 0 52 3;
#X connect 14 0 23 0;
#X connect 15 0 25 0;
#X connect 15 0 26 0;
#X connect 16 0 18 0;
#X connect 18 0 20 1;
#X connect 19 0 20 2;
#X connect 20 0 122 0;
#X connect 21 0 19 0;
#X connect 22 0 24 0;
#X connect 23 0 20 0;
#X connect 24 0 23 1;
#X connect 25 0 27 0;
#X connect 26 0 16 0;
#X connect 27 0 15 1;
#X connect 28 0 21 0;
#X connect 32 0 31 0;
#X connect 33 0 31 0;
#X connect 35 0 15 0;
#X connect 35 0 86 0;
#X connect 41 0 42 0;
#X connect 42 0 54 0;
#X connect 43 0 73 0;
#X connect 50 0 122 0;
#X connect 51 0 123 0;
#X connect 52 0 123 0;
#X connect 60 0 59 0;
#X connect 69 0 78 0;
#X connect 70 0 113 0;
#X connect 70 1 115 0;
#X connect 70 2 117 0;
#X connect 70 3 119 0;
#X connect 73 0 109 0;
#X connect 74 0 75 0;
#X connect 75 0 68 0;
#X connect 76 0 74 0;
#X connect 76 0 75 0;
#X connect 77 0 111 0;
#X connect 77 0 110 0;
#X connect 78 0 76 0;
#X connect 78 1 77 0;
#X connect 80 0 31 0;
#X connect 86 0 22 0;
#X connect 92 0 93 0;
#X connect 96 0 94 0;
#X connect 97 0 94 0;
#X connect 98 0 109 0;
#X connect 106 0 55 0;
#X connect 109 0 29 0;
#X connect 109 1 29 1;
#X connect 110 0 74 0;
#X connect 111 0 75 0;
#X connect 112 0 55 0;
#X connect 113 0 6 0;
#X connect 114 0 113 1;
#X connect 115 0 11 0;
#X connect 116 0 115 1;
#X connect 117 0 12 0;
#X connect 118 0 117 1;
#X connect 119 0 13 0;
#X connect 120 0 119 1;
#X connect 122 0 70 0;
#X connect 123 0 17 0;
#X connect 123 1 56 0;
